<svg width="149" height="40" viewBox="0 0 149 40" fill="none" xmlns="http://www.w3.org/2000/svg">
<g clip-path="url(#clip0_2205_6)">
<path d="M17.0129 11.5405H0.5V29.8972H5.09608V23.9251H13.9029L17.9211 29.8972H23.0675L18.6366 23.8976C20.0127 23.6774 21.0035 23.1545 21.609 22.3288C22.2144 21.5032 22.5171 20.1822 22.5171 18.4208V17.0447C22.5171 15.9989 22.4071 15.1733 22.2144 14.5403C22.0217 13.9073 21.6915 13.3569 21.2236 12.8615C20.7282 12.3936 20.1778 12.0634 19.5173 11.8432C18.8568 11.6505 18.0311 11.5405 17.0129 11.5405ZM16.2698 19.8794H5.09608V15.5861H16.2698C16.9028 15.5861 17.3431 15.6962 17.5633 15.8888C17.7834 16.0815 17.9211 16.4392 17.9211 16.9622V18.5034C17.9211 19.0538 17.7834 19.4116 17.5633 19.6043C17.3431 19.7969 16.9028 19.8794 16.2698 19.8794Z" fill="white"/>
<path d="M29.2777 24.4755V11.5405H24.6816V24.3654C24.6816 25.4112 24.7642 26.2644 24.9568 26.8974C25.1495 27.5579 25.4798 28.1083 25.9751 28.5762C26.443 29.0716 26.9935 29.4018 27.6539 29.5945C28.3145 29.8147 29.1401 29.8972 30.186 29.8972H41.1945C42.2128 29.8972 43.0385 29.8147 43.6989 29.5945C44.3594 29.4018 44.9099 29.0716 45.4053 28.5762C45.8732 28.1083 46.2034 27.5579 46.396 26.8974C46.5888 26.2644 46.6988 25.4112 46.6988 24.3654V11.5405H42.1027V24.4755C42.1027 25.0259 41.9651 25.3837 41.745 25.5764C41.5247 25.769 41.0844 25.8515 40.4515 25.8515H30.929C30.2685 25.8515 29.8282 25.769 29.608 25.5764C29.3878 25.3837 29.2777 25.0259 29.2777 24.4755Z" fill="white"/>
<path d="M62.2462 29.8972V15.5861H71.1356V11.5405H48.7607V15.5861H57.6501V29.8972H62.2462Z" fill="white"/>
<path d="M77.7934 24.4755V11.5405H73.1973V24.3654C73.1973 25.4112 73.2799 26.2644 73.4725 26.8974C73.6652 27.5579 73.9954 28.1083 74.4908 28.5762C74.9587 29.0716 75.5091 29.4018 76.1696 29.5945C76.8301 29.8147 77.6558 29.8972 78.7016 29.8972H89.7101C90.7285 29.8972 91.5541 29.8147 92.2146 29.5945C92.8751 29.4018 93.4256 29.0716 93.9209 28.5762C94.3887 28.1083 94.7191 27.5579 94.9117 26.8974C95.1043 26.2644 95.2144 25.4112 95.2144 24.3654V11.5405H90.6184V24.4755C90.6184 25.0259 90.4808 25.3837 90.2606 25.5764C90.0403 25.769 89.6 25.8515 88.9671 25.8515H79.4447C78.7841 25.8515 78.3438 25.769 78.1236 25.5764C77.9035 25.3837 77.7934 25.0259 77.7934 24.4755Z" fill="white"/>
<path d="M118.506 16.8796V16.5219C118.506 14.8155 118.066 13.5495 117.185 12.7514C116.304 11.9533 114.901 11.5405 113.03 11.5405H97.4248V29.8972H113.938C115.809 29.8972 117.212 29.5119 118.094 28.7138C118.974 27.9157 119.414 26.6497 119.414 24.9434V24.558C119.414 22.8518 118.974 21.6408 118.094 20.9252C117.928 20.8151 117.763 20.7326 117.598 20.6501C117.433 20.5674 117.185 20.4574 116.882 20.3473C117.488 20.017 117.901 19.5767 118.148 19.0813C118.369 18.5859 118.506 17.8429 118.506 16.8796ZM102.021 18.8887V15.5861H112.286C112.947 15.5861 113.387 15.6962 113.608 15.8888C113.827 16.0815 113.938 16.4392 113.938 16.9622V17.5126C113.938 18.0631 113.827 18.4208 113.608 18.6135C113.387 18.8061 112.947 18.8887 112.286 18.8887H102.021ZM102.021 25.8515V22.5491H113.222C113.855 22.5491 114.295 22.6591 114.516 22.8518C114.735 23.0444 114.873 23.4022 114.873 23.9251V24.4755C114.873 25.0259 114.735 25.3837 114.516 25.5764C114.295 25.769 113.855 25.8515 113.222 25.8515H102.021Z" fill="white"/>
<path d="M125.648 15.5861H140.675V11.5405H121.052V29.8972H141.417V25.8515H125.648V22.7417H140.316L140.675 18.696H125.648V15.5861Z" fill="white"/>
<path d="M145.011 10.4319C146.787 10.4319 148.227 8.99209 148.227 7.21596C148.227 5.43984 146.787 4 145.011 4C143.235 4 141.795 5.43984 141.795 7.21596C141.795 8.99209 143.235 10.4319 145.011 10.4319Z" fill="#F41240"/>
</g>
<defs>
<clipPath id="clip0_2205_6">
<rect width="148" height="40" fill="white" transform="translate(0.5)"/>
</clipPath>
</defs>
</svg>
